<?xml version="1.0" encoding="UTF-8"?>
<svg width="752pt" height="752pt" version="1.1" viewBox="0 0 752 752" xmlns="http://www.w3.org/2000/svg">
 <g fill="#fff">
  <path d="m161.41 405.6h17.418c4.2969 24.441 13.895 47.648 28.121 67.988l-12.293 12.32c-2.8867 2.8867-2.8867 7.5742 0 10.461l31.375 31.375c2.8906 2.8906 7.5742 2.8906 10.465 0l12.328-12.32c20.332 14.234 43.535 23.844 67.98 28.148v17.418c0 1.9648 0.77734 3.8477 2.168 5.2344 1.3867 1.3867 3.2695 2.168 5.2305 2.168h44.398c1.9609 0 3.8438-0.78125 5.2344-2.168 1.3867-1.3867 2.1641-3.2695 2.1641-5.2344v-66.594h22.941c7.6484-0.015626 14.98-3.0625 20.387-8.4727 5.4102-5.4062 8.457-12.738 8.4727-20.387v-179.07c-0.015625-7.6484-3.0625-14.98-8.4727-20.391-5.4062-5.4062-12.738-8.4531-20.387-8.4688h-22.941v-66.598c0-1.9609-0.77734-3.8438-2.1641-5.2305-1.3906-1.3867-3.2734-2.168-5.2344-2.168h-44.398c-4.0859 0-7.3984 3.3125-7.3984 7.3984v17.422c-24.441 4.2969-47.645 13.895-67.98 28.117l-12.328-12.32c-2.8906-2.8906-7.5742-2.8906-10.465 0l-31.375 31.375c-2.8867 2.8906-2.8867 7.5742 0 10.461l12.32 12.328c-14.238 20.344-23.848 43.559-28.148 68.012h-17.418c-4.0859 0-7.3984 3.3125-7.3984 7.3984v44.398c0 1.9648 0.77734 3.8477 2.1641 5.2344 1.3906 1.3867 3.2734 2.168 5.2344 2.168zm251.59-119.14v179.07c-0.023438 7.7539-6.3047 14.035-14.059 14.059h-60.68c-7.7539-0.023437-14.035-6.3047-14.059-14.059v-179.07c0.023437-7.7539 6.3047-14.035 14.059-14.059h60.68c7.7539 0.023438 14.035 6.3047 14.059 14.059zm-74.738-28.859c-7.6484 0.015625-14.98 3.0625-20.387 8.4688-5.4102 5.4102-8.457 12.742-8.4727 20.391v179.07c0.015625 7.6484 3.0625 14.98 8.4727 20.387 5.4062 5.4102 12.738 8.457 20.387 8.4727h22.941v7.2305c-74.094-3.457-133.2-58.488-133.2-125.63 0-67.137 59.102-122.17 133.2-125.62v7.2305zm-169.45 103.6h16.355c3.6992 0 6.832-2.7344 7.332-6.4023 3.6133-26.406 13.977-51.438 30.086-72.672 2.2461-2.9492 1.9609-7.1055-0.66406-9.7227l-11.566-11.543 20.91-20.91 11.547 11.562c2.6133 2.6133 6.7539 2.8984 9.6992 0.66797 21.242-16.113 46.281-26.477 72.695-30.098 3.6641-0.49609 6.3984-3.625 6.3984-7.3242v-16.352h29.598v37.34c-82.238 3.5273-147.99 64.988-147.99 140.25s65.754 136.72 147.99 140.25l0.003906 37.34h-29.602v-16.352c0.003907-3.7031-2.7305-6.8359-6.3984-7.3359-26.406-3.6172-51.438-13.98-72.672-30.086-2.9492-2.2305-7.0898-1.9492-9.7031 0.66797l-11.566 11.562-20.91-20.91 11.566-11.543c2.6133-2.6133 2.8984-6.7539 0.66406-9.7031-16.117-21.238-26.48-46.277-30.094-72.691-0.5-3.668-3.625-6.3984-7.3242-6.4023h-16.355z"/>
  <path d="m353.8 287.2h29.598v14.801h-29.598z"/>
  <path d="m368.6 464.8c5.8867 0 11.535-2.3359 15.699-6.5 4.1602-4.1641 6.5-9.8125 6.5-15.699 0-5.8867-2.3398-11.531-6.5-15.695-4.1641-4.1641-9.8125-6.5039-15.699-6.5039-5.8867 0-11.535 2.3398-15.695 6.5039-4.1641 4.1641-6.5039 9.8086-6.5039 15.695 0 5.8867 2.3398 11.535 6.5039 15.699 4.1602 4.1641 9.8086 6.5 15.695 6.5zm0-29.598c2.9922 0 5.6914 1.8008 6.8359 4.5664s0.51172 5.9492-1.6016 8.0664c-2.1172 2.1172-5.3008 2.75-8.0664 1.6016-2.7656-1.1445-4.5664-3.8438-4.5664-6.8359 0-4.0859 3.3125-7.3984 7.3984-7.3984z"/>
  <path d="m568.39 538.79c-6.543 0.027343-12.895 2.2188-18.059 6.2344-5.1641 4.0156-8.8555 9.6328-10.492 15.965h-36.07l-5.9883-38.145c-0.5625-3.5977-3.6602-6.25-7.3047-6.25h-99.68v14.801l93.348-0.003907 5.9883 38.145h-0.003907c0.56641 3.6016 3.668 6.2539 7.3125 6.2539h42.398c1.8711 7.1641 6.3594 13.367 12.582 17.383 6.2227 4.0117 13.727 5.5391 21.023 4.2852 7.2969-1.2578 13.859-5.207 18.383-11.07 4.5234-5.8594 6.6797-13.207 6.043-20.586-0.63672-7.3789-4.0195-14.246-9.4766-19.25-5.4609-5-12.602-7.7695-20.004-7.7617zm0 44.398c-3.9258 0-7.6914-1.5586-10.465-4.332-2.7773-2.7773-4.3359-6.5391-4.3359-10.465s1.5586-7.6914 4.3359-10.465c2.7734-2.7773 6.5391-4.3359 10.465-4.3359s7.6875 1.5586 10.465 4.3359c2.7734 2.7734 4.332 6.5391 4.332 10.465s-1.5586 7.6875-4.332 10.465c-2.7773 2.7734-6.5391 4.332-10.465 4.332z"/>
  <path d="m568.39 154.01c-6.543 0.023437-12.895 2.2148-18.059 6.2305-5.1641 4.0156-8.8555 9.6328-10.492 15.969h-42.398c-3.6445 0-6.7461 2.6523-7.3125 6.25l-5.9844 38.148h-93.348v14.801l99.68-0.003906c3.6445-0.003906 6.7422-2.6562 7.3047-6.25l5.9883-38.148h36.074-0.003906c1.8711 7.168 6.3594 13.371 12.582 17.383 6.2227 4.0117 13.727 5.543 21.023 4.2852 7.2969-1.2539 13.859-5.207 18.383-11.07 4.5234-5.8594 6.6797-13.207 6.043-20.586-0.63672-7.375-4.0195-14.246-9.4766-19.25-5.4609-5-12.602-7.7695-20.004-7.7578zm0 44.398c-3.9258 0-7.6914-1.5625-10.465-4.3359-2.7773-2.7773-4.3359-6.5391-4.3359-10.465s1.5586-7.6914 4.3359-10.465c2.7734-2.7773 6.5391-4.3359 10.465-4.3359s7.6875 1.5586 10.465 4.3359c2.7734 2.7734 4.332 6.5391 4.332 10.465s-1.5586 7.6875-4.332 10.465c-2.7773 2.7734-6.5391 4.3359-10.465 4.3359z"/>
  <path d="m568.39 235.41c-6.543 0.023438-12.895 2.2188-18.059 6.2344-5.1641 4.0156-8.8555 9.6289-10.492 15.965h-52.848c-2.8164-0.015625-5.3984 1.5703-6.6602 4.0938l-5.3125 10.707h-32.426v14.801h37v-0.003906c2.8164 0.015625 5.3984-1.5703 6.6602-4.0898l5.3125-10.707h48.277-0.003906c1.8711 7.1641 6.3594 13.367 12.582 17.379 6.2227 4.0156 13.727 5.543 21.023 4.2891 7.2969-1.2578 13.859-5.207 18.383-11.07 4.5234-5.8633 6.6797-13.211 6.043-20.586-0.63672-7.3789-4.0195-14.25-9.4766-19.25-5.4609-5.0039-12.602-7.7734-20.004-7.7617zm0 44.398c-3.9258 0-7.6914-1.5586-10.465-4.3359-2.7773-2.7734-4.3359-6.5391-4.3359-10.461 0-3.9258 1.5586-7.6914 4.3359-10.465 2.7734-2.7773 6.5391-4.3359 10.465-4.3359s7.6875 1.5586 10.465 4.3359c2.7734 2.7734 4.332 6.5391 4.332 10.465 0 3.9219-1.5586 7.6875-4.332 10.461-2.7773 2.7773-6.5391 4.3359-10.465 4.3359z"/>
  <path d="m568.39 450c-6.543 0.023438-12.895 2.2148-18.059 6.2305-5.1641 4.0156-8.8555 9.6328-10.492 15.969h-48.273l-5.3125-10.711c-1.2617-2.5195-3.8438-4.1055-6.6602-4.0898h-37v14.801h32.426l5.3516 10.707c1.2539 2.5078 3.8164 4.0938 6.6211 4.0898h52.848c1.8711 7.168 6.3594 13.371 12.582 17.383 6.2227 4.0117 13.727 5.543 21.023 4.2852 7.2969-1.2578 13.859-5.207 18.383-11.07 4.5234-5.8594 6.6797-13.207 6.043-20.586-0.63672-7.375-4.0195-14.246-9.4766-19.25-5.4609-5-12.602-7.7695-20.004-7.7578zm0 44.398c-3.9258 0-7.6914-1.5625-10.465-4.3359-2.7773-2.7773-4.3359-6.5391-4.3359-10.465 0-3.9258 1.5586-7.6914 4.3359-10.465 2.7734-2.7773 6.5391-4.3359 10.465-4.3359s7.6875 1.5586 10.465 4.3359c2.7734 2.7734 4.332 6.5391 4.332 10.465 0 3.9258-1.5586 7.6875-4.332 10.465-2.7773 2.7734-6.5391 4.3359-10.465 4.3359z"/>
  <path d="m538.79 405.6c7.4258 0.027344 14.594-2.7383 20.074-7.7461 5.4844-5.0078 8.8828-11.895 9.5273-19.289 0.64062-7.3984-1.5195-14.766-6.0547-20.645s-11.117-9.8398-18.434-11.094c-7.3203-1.2539-14.844 0.28906-21.078 4.3203-6.2344 4.0352-10.727 10.266-12.582 17.453h-67.648v14.801h67.648c1.6367 6.3359 5.3242 11.949 10.492 15.965 5.1641 4.0156 11.512 6.207 18.055 6.2344zm0-44.398c3.9258 0 7.6914 1.5586 10.465 4.332 2.7773 2.7773 4.3359 6.543 4.3359 10.465 0 3.9258-1.5586 7.6914-4.3359 10.465-2.7734 2.7773-6.5391 4.3359-10.465 4.3359-3.9219 0-7.6875-1.5586-10.461-4.3359-2.7773-2.7734-4.3359-6.5391-4.3359-10.465 0-3.9219 1.5586-7.6875 4.3359-10.465 2.7734-2.7734 6.5391-4.332 10.461-4.332z"/>
 </g>
</svg>
